<?xml version="1.0" encoding="UTF-8" standalone="no"?>
<!DOCTYPE svg PUBLIC "-//W3C//DTD SVG 1.1//EN"
 "http://www.w3.org/Graphics/SVG/1.1/DTD/svg11.dtd">
<!-- Generated by graphviz version 10.0.1 (20240210.2158)
 -->
<!-- Title: packages Pages: 1 -->
<svg width="1314pt" height="366pt"
 viewBox="0.00 0.00 1314.00 366.00" xmlns="http://www.w3.org/2000/svg" xmlns:xlink="http://www.w3.org/1999/xlink">
<g id="graph0" class="graph" transform="scale(1 1) rotate(0) translate(4 362)">
<title>packages</title>
<polygon fill="white" stroke="none" points="-4,4 -4,-362 1310,-362 1310,4 -4,4"/>
<g id="clust1" class="cluster">
<title>cluster_innmind</title>
<g id="a_clust1"><a xlink:href="https://packagist.org/packages/innmind/" xlink:title="innmind">
<polygon fill="none" stroke="black" points="8,-8 8,-350 1298,-350 1298,-8 8,-8"/>
<text text-anchor="middle" x="653" y="-332.7" font-family="Times,serif" font-size="14.00">innmind</text>
</a>
</g>
</g>
<!-- innmind__async_http_server -->
<g id="node1" class="node">
<title>innmind__async_http_server</title>
<g id="a_node1"><a xlink:href="https://packagist.org/packages/innmind/async-http-server#3.0.0" xlink:title="async&#45;http&#45;server@3.0.0">
<ellipse fill="none" stroke="#e38ed1" cx="119" cy="-122.5" rx="102.53" ry="18"/>
<text text-anchor="middle" x="119" y="-117.45" font-family="Times,serif" font-size="14.00">async&#45;http&#45;server@3.0.0</text>
</a>
</g>
</g>
<!-- innmind__cli -->
<g id="node14" class="node">
<title>innmind__cli</title>
<g id="a_node14"><a xlink:href="https://packagist.org/packages/innmind/cli#3.6.0" xlink:title="cli@3.6.0">
<ellipse fill="none" stroke="#87dfa2" cx="689" cy="-34" rx="47.77" ry="18"/>
<text text-anchor="middle" x="689" y="-28.95" font-family="Times,serif" font-size="14.00">cli@3.6.0</text>
</a>
</g>
</g>
<!-- innmind__async_http_server&#45;&gt;innmind__cli -->
<g id="edge1" class="edge">
<title>innmind__async_http_server&#45;&gt;innmind__cli</title>
<path fill="none" stroke="#e38ed1" d="M171.28,-106.62C213.93,-95.01 275.92,-79.34 331,-70 435.69,-52.26 559.25,-42.64 630.42,-38.19"/>
<polygon fill="#e38ed1" stroke="#e38ed1" points="630.53,-41.69 640.3,-37.58 630.1,-34.7 630.53,-41.69"/>
<text text-anchor="middle" x="343" y="-73.2" font-family="Times,serif" font-size="14.00">^3.3</text>
</g>
<!-- innmind__crawler_app -->
<g id="node2" class="node">
<title>innmind__crawler_app</title>
<g id="a_node2"><a xlink:href="https://packagist.org/packages/innmind/crawler-app#1.5.2" xlink:title="crawler&#45;app@1.5.2">
<ellipse fill="none" stroke="#aca530" cx="557" cy="-299.5" rx="82.57" ry="18"/>
<text text-anchor="middle" x="557" y="-294.45" font-family="Times,serif" font-size="14.00">crawler&#45;app@1.5.2</text>
</a>
</g>
</g>
<!-- innmind__installation_monitor -->
<g id="node7" class="node">
<title>innmind__installation_monitor</title>
<g id="a_node7"><a xlink:href="https://packagist.org/packages/innmind/installation-monitor#3.1.0" xlink:title="installation&#45;monitor@3.1.0">
<ellipse fill="none" stroke="#6c38e4" cx="712" cy="-211" rx="112.26" ry="18"/>
<text text-anchor="middle" x="712" y="-205.95" font-family="Times,serif" font-size="14.00">installation&#45;monitor@3.1.0</text>
</a>
</g>
</g>
<!-- innmind__crawler_app&#45;&gt;innmind__installation_monitor -->
<g id="edge3" class="edge">
<title>innmind__crawler_app&#45;&gt;innmind__installation_monitor</title>
<path fill="none" stroke="#aca530" d="M586.15,-282.23C610.42,-268.69 645.2,-249.28 672.05,-234.29"/>
<polygon fill="#aca530" stroke="#aca530" points="673.57,-237.45 680.6,-229.52 670.16,-231.34 673.57,-237.45"/>
<text text-anchor="middle" x="660.38" y="-250.2" font-family="Times,serif" font-size="14.00">~3.0</text>
</g>
<!-- innmind__silent_cartographer -->
<g id="node12" class="node">
<title>innmind__silent_cartographer</title>
<g id="a_node12"><a xlink:href="https://packagist.org/packages/innmind/silent-cartographer#2.2.0" xlink:title="silent&#45;cartographer@2.2.0">
<ellipse fill="none" stroke="#736d96" cx="545" cy="-122.5" rx="108.16" ry="18"/>
<text text-anchor="middle" x="545" y="-117.45" font-family="Times,serif" font-size="14.00">silent&#45;cartographer@2.2.0</text>
</a>
</g>
</g>
<!-- innmind__crawler_app&#45;&gt;innmind__silent_cartographer -->
<g id="edge4" class="edge">
<title>innmind__crawler_app&#45;&gt;innmind__silent_cartographer</title>
<path fill="none" stroke="#aca530" d="M555.81,-281.08C553.74,-250.94 549.48,-188.8 546.97,-152.2"/>
<polygon fill="#aca530" stroke="#aca530" points="550.47,-152.1 546.29,-142.36 543.49,-152.58 550.47,-152.1"/>
<text text-anchor="middle" x="564.38" y="-205.95" font-family="Times,serif" font-size="14.00">~2.0</text>
</g>
<!-- innmind__crawler_app&#45;&gt;innmind__cli -->
<g id="edge2" class="edge">
<title>innmind__crawler_app&#45;&gt;innmind__cli</title>
<path fill="none" stroke="#ff0000" stroke-width="2" d="M552.62,-281.1C546.29,-258.69 532.75,-219.45 510,-193 481.79,-160.19 448.77,-178.46 428,-140.5 420.32,-126.46 418.25,-117.19 428,-104.5 452.77,-72.27 563.67,-51.82 632.7,-41.98"/>
<polygon fill="#ff0000" stroke="#ff0000" stroke-width="2" points="631.39,-45.69 640.81,-40.85 630.43,-38.76 631.39,-45.69"/>
<text text-anchor="middle" x="497.38" y="-161.7" font-family="Times,serif" font-size="14.00">~2.0</text>
</g>
<!-- innmind__debug -->
<g id="node3" class="node">
<title>innmind__debug</title>
<g id="a_node3"><a xlink:href="https://packagist.org/packages/innmind/debug#4.0.0" xlink:title="debug@4.0.0">
<ellipse fill="none" stroke="#1d447b" cx="339" cy="-299.5" rx="61.08" ry="18"/>
<text text-anchor="middle" x="339" y="-294.45" font-family="Times,serif" font-size="14.00">debug@4.0.0</text>
</a>
</g>
</g>
<!-- innmind__framework -->
<g id="node5" class="node">
<title>innmind__framework</title>
<g id="a_node5"><a xlink:href="https://packagist.org/packages/innmind/framework#2.2.0" xlink:title="framework@2.2.0">
<ellipse fill="none" stroke="#e63411" cx="319" cy="-122.5" rx="79.5" ry="18"/>
<text text-anchor="middle" x="319" y="-117.45" font-family="Times,serif" font-size="14.00">framework@2.2.0</text>
</a>
</g>
</g>
<!-- innmind__debug&#45;&gt;innmind__framework -->
<g id="edge6" class="edge">
<title>innmind__debug&#45;&gt;innmind__framework</title>
<path fill="none" stroke="#1d447b" d="M337.01,-281.08C333.56,-250.94 326.46,-188.8 322.28,-152.2"/>
<polygon fill="#1d447b" stroke="#1d447b" points="325.77,-151.89 321.15,-142.35 318.81,-152.69 325.77,-151.89"/>
<text text-anchor="middle" x="342.38" y="-205.95" font-family="Times,serif" font-size="14.00">~2.0</text>
</g>
<!-- innmind__profiler -->
<g id="node11" class="node">
<title>innmind__profiler</title>
<g id="a_node11"><a xlink:href="https://packagist.org/packages/innmind/profiler#4.1.0" xlink:title="profiler@4.1.0">
<ellipse fill="none" stroke="#7d0c5f" cx="435" cy="-211" rx="66.19" ry="18"/>
<text text-anchor="middle" x="435" y="-205.95" font-family="Times,serif" font-size="14.00">profiler@4.1.0</text>
</a>
</g>
</g>
<!-- innmind__debug&#45;&gt;innmind__profiler -->
<g id="edge5" class="edge">
<title>innmind__debug&#45;&gt;innmind__profiler</title>
<path fill="none" stroke="#1d447b" d="M357.06,-282.23C371.58,-269.14 392.19,-250.57 408.57,-235.81"/>
<polygon fill="#1d447b" stroke="#1d447b" points="410.49,-238.8 415.57,-229.5 405.8,-233.6 410.49,-238.8"/>
<text text-anchor="middle" x="407.38" y="-250.2" font-family="Times,serif" font-size="14.00">~4.0</text>
</g>
<!-- innmind__dependency_graph -->
<g id="node4" class="node">
<title>innmind__dependency_graph</title>
<g id="a_node4"><a xlink:href="https://packagist.org/packages/innmind/dependency-graph#3.6.0" xlink:title="dependency&#45;graph@3.6.0">
<ellipse fill="none" stroke="#a7837f" cx="183" cy="-211" rx="106.63" ry="18"/>
<text text-anchor="middle" x="183" y="-205.95" font-family="Times,serif" font-size="14.00">dependency&#45;graph@3.6.0</text>
</a>
</g>
</g>
<!-- innmind__dependency_graph&#45;&gt;innmind__framework -->
<g id="edge7" class="edge">
<title>innmind__dependency_graph&#45;&gt;innmind__framework</title>
<path fill="none" stroke="#a7837f" d="M209.55,-193.12C230.78,-179.61 260.75,-160.55 283.96,-145.79"/>
<polygon fill="#a7837f" stroke="#a7837f" points="285.61,-148.89 292.17,-140.57 281.85,-142.98 285.61,-148.89"/>
<text text-anchor="middle" x="275.38" y="-161.7" font-family="Times,serif" font-size="14.00">~2.0</text>
</g>
<!-- innmind__framework&#45;&gt;innmind__cli -->
<g id="edge8" class="edge">
<title>innmind__framework&#45;&gt;innmind__cli</title>
<path fill="none" stroke="#e63411" d="M336.42,-104.63C349.71,-92.84 369.07,-77.85 389,-70 431.69,-53.18 556.23,-43 630.75,-38.24"/>
<polygon fill="#e63411" stroke="#e63411" points="630.54,-41.76 640.3,-37.65 630.1,-34.78 630.54,-41.76"/>
<text text-anchor="middle" x="401" y="-73.2" font-family="Times,serif" font-size="14.00">^3.1</text>
</g>
<!-- innmind__git_release -->
<g id="node6" class="node">
<title>innmind__git_release</title>
<g id="a_node6"><a xlink:href="https://packagist.org/packages/innmind/git-release#3.1.0" xlink:title="git&#45;release@3.1.0">
<ellipse fill="none" stroke="#c5ea8f" cx="809" cy="-122.5" rx="76.94" ry="18"/>
<text text-anchor="middle" x="809" y="-117.45" font-family="Times,serif" font-size="14.00">git&#45;release@3.1.0</text>
</a>
</g>
</g>
<!-- innmind__git_release&#45;&gt;innmind__cli -->
<g id="edge9" class="edge">
<title>innmind__git_release&#45;&gt;innmind__cli</title>
<path fill="none" stroke="#c5ea8f" d="M786.15,-105.03C767.36,-91.49 740.57,-72.17 719.87,-57.25"/>
<polygon fill="#c5ea8f" stroke="#c5ea8f" points="721.94,-54.43 711.79,-51.42 717.85,-60.11 721.94,-54.43"/>
<text text-anchor="middle" x="771.38" y="-73.2" font-family="Times,serif" font-size="14.00">~3.0</text>
</g>
<!-- innmind__installation_monitor&#45;&gt;innmind__silent_cartographer -->
<g id="edge11" class="edge">
<title>innmind__installation_monitor&#45;&gt;innmind__silent_cartographer</title>
<path fill="none" stroke="#6c38e4" d="M679.8,-193.32C653.46,-179.68 616.01,-160.28 587.26,-145.39"/>
<polygon fill="#6c38e4" stroke="#6c38e4" points="588.93,-142.31 578.44,-140.82 585.71,-148.53 588.93,-142.31"/>
<text text-anchor="middle" x="655.38" y="-161.7" font-family="Times,serif" font-size="14.00">~2.0</text>
</g>
<!-- innmind__installation_monitor&#45;&gt;innmind__cli -->
<g id="edge10" class="edge">
<title>innmind__installation_monitor&#45;&gt;innmind__cli</title>
<path fill="none" stroke="#ff0000" stroke-width="2" d="M708.03,-192.67C704.95,-178.66 700.8,-158.4 698.25,-140.5 694.57,-114.63 692.12,-84.97 690.68,-63.7"/>
<polygon fill="#ff0000" stroke="#ff0000" stroke-width="2" points="694.27,-65.02 690.13,-55.26 687.28,-65.47 694.27,-65.02"/>
<text text-anchor="middle" x="710.38" y="-117.45" font-family="Times,serif" font-size="14.00">~2.0</text>
</g>
<!-- innmind__kalmiya -->
<g id="node8" class="node">
<title>innmind__kalmiya</title>
<g id="a_node8"><a xlink:href="https://packagist.org/packages/innmind/kalmiya#2.0.0" xlink:title="kalmiya@2.0.0">
<ellipse fill="none" stroke="#2e2b99" cx="145" cy="-299.5" rx="68.75" ry="18"/>
<text text-anchor="middle" x="145" y="-294.45" font-family="Times,serif" font-size="14.00">kalmiya@2.0.0</text>
</a>
</g>
</g>
<!-- innmind__kalmiya&#45;&gt;innmind__dependency_graph -->
<g id="edge13" class="edge">
<title>innmind__kalmiya&#45;&gt;innmind__dependency_graph</title>
<path fill="none" stroke="#2e2b99" d="M152.51,-281.41C157.73,-269.52 164.81,-253.41 170.83,-239.7"/>
<polygon fill="#2e2b99" stroke="#2e2b99" points="173.95,-241.3 174.77,-230.74 167.54,-238.48 173.95,-241.3"/>
<text text-anchor="middle" x="179.38" y="-250.2" font-family="Times,serif" font-size="14.00">~3.6</text>
</g>
<!-- innmind__kalmiya&#45;&gt;innmind__framework -->
<g id="edge12" class="edge">
<title>innmind__kalmiya&#45;&gt;innmind__framework</title>
<path fill="none" stroke="#2e2b99" d="M111.02,-283.42C71.54,-263.8 15.05,-227.88 42.25,-193 48.82,-184.57 172.38,-155.91 252.16,-138.13"/>
<polygon fill="#2e2b99" stroke="#2e2b99" points="252.62,-141.61 261.63,-136.03 251.11,-134.78 252.62,-141.61"/>
<text text-anchor="middle" x="55.38" y="-205.95" font-family="Times,serif" font-size="14.00">~2.2</text>
</g>
<!-- innmind__lab_station -->
<g id="node9" class="node">
<title>innmind__lab_station</title>
<g id="a_node9"><a xlink:href="https://packagist.org/packages/innmind/lab-station#4.1.0" xlink:title="lab&#45;station@4.1.0">
<ellipse fill="none" stroke="#23c857" cx="981" cy="-122.5" rx="77.45" ry="18"/>
<text text-anchor="middle" x="981" y="-117.45" font-family="Times,serif" font-size="14.00">lab&#45;station@4.1.0</text>
</a>
</g>
</g>
<!-- innmind__lab_station&#45;&gt;innmind__cli -->
<g id="edge14" class="edge">
<title>innmind__lab_station&#45;&gt;innmind__cli</title>
<path fill="none" stroke="#23c857" d="M934.41,-107.7C880.18,-91.63 791.1,-65.25 736.49,-49.07"/>
<polygon fill="#23c857" stroke="#23c857" points="737.75,-45.79 727.17,-46.31 735.76,-52.5 737.75,-45.79"/>
<text text-anchor="middle" x="873.38" y="-73.2" font-family="Times,serif" font-size="14.00">~3.4</text>
</g>
<!-- innmind__library -->
<g id="node10" class="node">
<title>innmind__library</title>
<g id="a_node10"><a xlink:href="https://packagist.org/packages/innmind/library#1.7.1" xlink:title="library@1.7.1">
<ellipse fill="none" stroke="#90b91d" cx="860" cy="-299.5" rx="63.12" ry="18"/>
<text text-anchor="middle" x="860" y="-294.45" font-family="Times,serif" font-size="14.00">library@1.7.1</text>
</a>
</g>
</g>
<!-- innmind__library&#45;&gt;innmind__installation_monitor -->
<g id="edge15" class="edge">
<title>innmind__library&#45;&gt;innmind__installation_monitor</title>
<path fill="none" stroke="#90b91d" d="M833.2,-282.84C810.18,-269.38 776.71,-249.82 750.77,-234.66"/>
<polygon fill="#90b91d" stroke="#90b91d" points="752.58,-231.67 742.19,-229.64 749.05,-237.71 752.58,-231.67"/>
<text text-anchor="middle" x="811.38" y="-250.2" font-family="Times,serif" font-size="14.00">~3.0</text>
</g>
<!-- innmind__library&#45;&gt;innmind__silent_cartographer -->
<g id="edge17" class="edge">
<title>innmind__library&#45;&gt;innmind__silent_cartographer</title>
<path fill="none" stroke="#90b91d" d="M860.68,-281.27C860.61,-257.94 856.82,-216.5 833,-193 805.83,-166.2 713.4,-147.12 640.49,-135.81"/>
<polygon fill="#90b91d" stroke="#90b91d" points="641.34,-132.4 630.92,-134.36 640.29,-139.32 641.34,-132.4"/>
<text text-anchor="middle" x="865.38" y="-205.95" font-family="Times,serif" font-size="14.00">~2.0</text>
</g>
<!-- innmind__library&#45;&gt;innmind__cli -->
<g id="edge16" class="edge">
<title>innmind__library&#45;&gt;innmind__cli</title>
<path fill="none" stroke="#ff0000" stroke-width="2" d="M897.18,-284.5C972.07,-254.28 1128.86,-179.58 1067,-104.5 1027.35,-56.37 844.11,-41.48 748.08,-36.94"/>
<polygon fill="#ff0000" stroke="#ff0000" stroke-width="2" points="749.99,-33.52 739.84,-36.57 749.68,-40.51 749.99,-33.52"/>
<text text-anchor="middle" x="1089.38" y="-161.7" font-family="Times,serif" font-size="14.00">~2.0</text>
</g>
<!-- innmind__profiler&#45;&gt;innmind__framework -->
<g id="edge18" class="edge">
<title>innmind__profiler&#45;&gt;innmind__framework</title>
<path fill="none" stroke="#7d0c5f" d="M413.18,-193.73C395.39,-180.46 370.04,-161.56 350.12,-146.71"/>
<polygon fill="#7d0c5f" stroke="#7d0c5f" points="352.44,-144.07 342.33,-140.9 348.25,-149.68 352.44,-144.07"/>
<text text-anchor="middle" x="399.38" y="-161.7" font-family="Times,serif" font-size="14.00">~2.0</text>
</g>
<!-- innmind__silent_cartographer&#45;&gt;innmind__cli -->
<g id="edge19" class="edge">
<title>innmind__silent_cartographer&#45;&gt;innmind__cli</title>
<path fill="none" stroke="#ff0000" stroke-width="2" d="M572.76,-104.82C596.18,-90.76 629.79,-70.57 654.85,-55.51"/>
<polygon fill="#ff0000" stroke="#ff0000" stroke-width="2" points="655.31,-59.32 662.08,-51.17 651.7,-53.32 655.31,-59.32"/>
<text text-anchor="middle" x="641.38" y="-73.2" font-family="Times,serif" font-size="14.00">~2.0</text>
</g>
<!-- innmind__virtual_machine -->
<g id="node13" class="node">
<title>innmind__virtual_machine</title>
<g id="a_node13"><a xlink:href="https://packagist.org/packages/innmind/virtual-machine#1.0.0" xlink:title="virtual&#45;machine@1.0.0">
<ellipse fill="none" stroke="#5e3d39" cx="1193" cy="-122.5" rx="97.41" ry="18"/>
<text text-anchor="middle" x="1193" y="-117.45" font-family="Times,serif" font-size="14.00">virtual&#45;machine@1.0.0</text>
</a>
</g>
</g>
<!-- innmind__virtual_machine&#45;&gt;innmind__cli -->
<g id="edge20" class="edge">
<title>innmind__virtual_machine&#45;&gt;innmind__cli</title>
<path fill="none" stroke="#ff0000" stroke-width="2" d="M1164.36,-104.85C1142.54,-93.01 1111.35,-77.86 1082,-70 1020.55,-53.55 841.36,-42.54 747.65,-37.74"/>
<polygon fill="#ff0000" stroke="#ff0000" stroke-width="2" points="749.58,-34.34 739.41,-37.33 749.22,-41.33 749.58,-34.34"/>
<text text-anchor="middle" x="1138" y="-73.2" font-family="Times,serif" font-size="14.00">^2.2</text>
</g>
</g>
</svg>
